<?xml version="1.0" encoding="utf-8"?>
<!-- Generator: Adobe Illustrator 23.0.4, SVG Export Plug-In . SVG Version: 6.00 Build 0)  -->
<svg version="1.1" id="Layer_1" xmlns="http://www.w3.org/2000/svg" xmlns:xlink="http://www.w3.org/1999/xlink" x="0px" y="0px"
	 viewBox="0 0 242.5 37.2" style="enable-background:new 0 0 242.5 37.2;" xml:space="preserve">
<style type="text/css">
	.st0{fill:#77787B;}
	.st1{fill:#231F20;}
	.st2{fill:#97D700;}
	.st3{fill:#88D312;}
	.st4{fill:#79CF25;}
	.st5{fill:#6ACB37;}
	.st6{fill:#5BC74A;}
	.st7{fill:#4CC35C;}
	.st8{fill:#43C168;}
	.st9{fill:#39BE73;}
	.st10{fill:#30BC7F;}
	.st11{fill:#26B98B;}
	.st12{fill:#1CB796;}
	.st13{fill:#13B5A2;}
	.st14{fill:#0AB2AD;}
	.st15{fill:#00B0B9;}
</style>
<g>
	<path class="st1" d="M55.6,21.2c0,2.6-1.8,4-4.8,4h-5.9V11h5.5c3,0,4.8,1.3,4.8,3.9c0,1.5-0.8,2.6-1.9,3
		C54.6,18.3,55.6,19.7,55.6,21.2z M50.2,16.9c1.4,0,2.2-0.6,2.2-1.7c0-1.1-0.7-1.6-2.2-1.6h-2.4v3.3H50.2z M47.8,22.7h2.8
		c1.4,0,2.1-0.7,2.1-1.8c0-1.1-0.7-1.8-2.1-1.8h-2.8V22.7z M64.1,17.7c-0.4-0.2-0.9-0.3-1.4-0.3c-1,0-1.8,0.5-2,1.5v6.4h-2.9V14.9
		h2.9v1c0.4-0.7,1.3-1.3,2.3-1.3c0.5,0,0.9,0.1,1.1,0.2V17.7z M67.1,13.5c-0.9,0-1.7-0.7-1.7-1.6c0-1,0.8-1.6,1.7-1.6
		c0.9,0,1.7,0.7,1.7,1.6C68.8,12.9,68.1,13.5,67.1,13.5z M68.6,25.3h-2.9V14.9h2.9V25.3z M77.7,24c-0.5,0.6-1.4,1.1-2.6,1.1
		c-3,0-4.7-2.4-4.7-5.2c0-2.8,1.7-5.2,4.7-5.2c1.1,0,2.1,0.5,2.6,1v-0.8h2.9v9.2c0,3.6-2.2,5.2-5.1,5.2c-2.7,0-4.5-1.4-4.8-3.7h2.8
		c0.2,1,0.9,1.5,2,1.5c1.5,0,2.2-0.9,2.2-2.5V24z M77.7,18.1c-0.3-0.6-1.1-1.1-1.9-1.1c-1.5,0-2.4,1.2-2.4,2.8
		c0,1.6,0.9,2.8,2.4,2.8c0.9,0,1.6-0.5,1.9-1.1V18.1z M83.1,10.2H86v5.7c0.6-0.6,1.6-1.2,2.8-1.2c2.3,0,3.7,1.5,3.7,3.8v6.8h-2.9
		v-6.2c0-1.1-0.6-1.8-1.7-1.8c-0.9,0-1.6,0.5-1.9,1.4v6.6h-2.9V10.2z M95.4,17.2h-1.6v-2.3h1.6v-2.8h2.9v2.8h2.3v2.3h-2.3v4.5
		c0,0.8,0.4,1.2,1.2,1.2c0.4,0,0.9-0.1,1.3-0.3v2.6c-0.4,0.2-1.1,0.3-1.9,0.3c-2.1,0-3.4-1-3.4-3.3V17.2z M102.8,10.2h2.9v5.7
		c0.6-0.6,1.6-1.2,2.8-1.2c2.3,0,3.7,1.5,3.7,3.8v6.8h-2.9v-6.2c0-1.1-0.6-1.8-1.7-1.8c-0.9,0-1.6,0.5-1.9,1.4v6.6h-2.9V10.2z
		 M119.1,25.5c-3,0-5.1-2.2-5.1-5.4c0-3.2,2.1-5.4,5.1-5.4c3,0,5.1,2.2,5.1,5.4C124.2,23.3,122.1,25.5,119.1,25.5z M119.1,17.1
		c-1.4,0-2.2,1.3-2.2,3c0,1.7,0.8,3,2.2,3c1.4,0,2.2-1.3,2.2-3C121.3,18.3,120.5,17.1,119.1,17.1z M135.3,25.3h-2.9v-1
		c-0.6,0.6-1.6,1.2-2.8,1.2c-2.3,0-3.6-1.5-3.6-3.8v-6.8h2.9v6.2c0,1.1,0.5,1.8,1.7,1.8c0.9,0,1.6-0.5,1.9-1.4v-6.6h2.9V25.3z
		 M140.1,22.2c0.2,0.7,0.9,1.1,1.7,1.1c0.9,0,1.5-0.3,1.5-1c0-0.5-0.3-0.7-1-0.9l-2.1-0.5c-1.6-0.4-2.7-1.2-2.7-2.9
		c0-2,1.8-3.4,4.1-3.4c2.6,0,4.1,1.3,4.4,3.2h-2.7c-0.2-0.6-0.7-1-1.6-1c-0.7,0-1.4,0.3-1.4,1c0,0.4,0.3,0.6,0.9,0.8l2.1,0.5
		c1.8,0.4,2.8,1.4,2.8,3c0,2.1-1.8,3.4-4.2,3.4c-2.5,0-4.3-1.2-4.6-3.3H140.1z M157.1,21.9c-0.4,2.2-2,3.6-4.6,3.6c-3,0-5-2.2-5-5.4
		c0-3.1,2.1-5.4,5-5.4c3,0,4.7,2.1,4.7,5.2v0.9h-6.9c0.1,1.6,1,2.5,2.3,2.5c1,0,1.7-0.4,1.9-1.3H157.1z M150.3,18.9h4
		c0-1.1-0.7-1.9-1.9-1.9C151.4,17,150.6,17.7,150.3,18.9z"/>
	<path class="st1" d="M103.2,37v-6.3h4v0.9h-2.9v1.9h2.7v0.9h-2.7V37H103.2z M110.3,37h-1.1v-6.3h1.1V37z M117.7,37h-0.8l-3.2-4.6
		V37h-1v-6.3h1l3,4.3v-4.3h1V37z M123.1,30.7l2.4,6.3h-1.1l-0.6-1.7h-2.4l-0.6,1.7h-1.1l2.4-6.3H123.1z M121.7,34.3h1.7l-0.9-2.3
		L121.7,34.3z M132.5,37h-0.8l-3.2-4.6V37h-1v-6.3h1l3,4.3v-4.3h1V37z M137.4,30.6c1.4,0,2.3,0.8,2.6,2.1h-1
		c-0.2-0.7-0.7-1.1-1.5-1.1c-1.1,0-1.8,1-1.8,2.3c0,1.3,0.7,2.3,1.8,2.3c0.8,0,1.3-0.4,1.5-1.1h1c-0.2,1.3-1.1,2.1-2.6,2.1
		c-1.6,0-2.8-1.3-2.8-3.2C134.5,31.9,135.8,30.6,137.4,30.6z M143,37H142v-6.3h1.1V37z M148.4,30.7l2.4,6.3h-1.1l-0.6-1.7h-2.4
		L146,37H145l2.4-6.3H148.4z M147,34.3h1.7l-0.9-2.3L147,34.3z"/>
	<polygon class="st2" points="0.3,18.1 0.3,37 1.7,26.2 1.7,16.7 	"/>
	<polygon class="st3" points="5.2,13.2 3.4,15 1.7,26.2 0.3,37 3.3,26.1 	"/>
	<polygon class="st4" points="10.1,8.3 7.9,10.5 3.3,26.1 0.3,37 4.8,26.2 	"/>
	<polygon class="st5" points="15.4,3 4.8,26.2 0.3,37 6.3,26.5 18.4,0 	"/>
	<polygon id="XMLID_352_" class="st6" points="0.3,37 7.7,27 22.3,3.9 21.2,2.9 6.3,26.5 	"/>
	<polygon id="XMLID_351_" class="st7" points="0.3,37 9.1,27.6 25.8,7.5 24.8,6.4 7.7,27 	"/>
	<polygon id="XMLID_350_" class="st8" points="0.3,37 10.4,28.4 29.2,10.9 28.1,9.8 9.1,27.6 	"/>
	<polygon id="XMLID_349_" class="st9" points="0.3,37 11.7,29.3 32.4,14.1 31.4,13.1 10.4,28.4 	"/>
	<polygon id="XMLID_348_" class="st10" points="0.3,37 12.8,30.4 35.7,17.4 34.6,16.3 11.7,29.3 	"/>
	<polygon id="XMLID_347_" class="st11" points="0.3,37 13.9,31.5 36.4,21.9 36.4,20.3 12.8,30.4 	"/>
	<polygon id="XMLID_346_" class="st12" points="0.3,37 14.9,32.8 36.4,26.2 36.4,24.6 13.9,31.5 	"/>
	<polygon id="XMLID_345_" class="st13" points="0.3,37 15.8,34.1 36.4,30.1 36.4,28.5 14.9,32.8 	"/>
	<polygon id="XMLID_344_" class="st14" points="0.3,37 16.7,35.5 36.4,33.6 36.4,32.1 15.8,34.1 	"/>
	<polygon id="XMLID_343_" class="st15" points="0.3,37 36.4,37 36.4,35.5 16.7,35.5 	"/>
	<path class="st1" d="M158.4,33.6c-0.8,0-1.4-0.6-1.4-1.4c0-0.8,0.6-1.4,1.4-1.4c0.8,0,1.4,0.6,1.4,1.4
		C159.8,33,159.2,33.6,158.4,33.6z M158.4,30.9c-0.7,0-1.2,0.5-1.2,1.2s0.5,1.2,1.2,1.2c0.7,0,1.2-0.5,1.2-1.2
		S159.1,30.9,158.4,30.9z M158.1,32.3v0.6h-0.2v-1.5h0.6c0.3,0,0.5,0.2,0.5,0.4c0,0.2-0.2,0.4-0.4,0.4l0.4,0.6h-0.2l-0.4-0.6H158.1z
		 M158.5,31.6h-0.4v0.5h0.4c0.2,0,0.3-0.1,0.3-0.2C158.8,31.7,158.7,31.6,158.5,31.6z"/>
	<polygon id="XMLID_1_" class="st1" points="152.7,30.7 153.8,30.7 153.8,36 156.8,36 156.8,37 152.7,37 	"/>
</g>
</svg>
