<?xml version="1.0" encoding="UTF-8"?>
<svg viewBox="0 0 275 72" version="1.1"
  xmlns="http://www.w3.org/2000/svg"
  xmlns:xlink="http://www.w3.org/1999/xlink">
  <title>EYCC Logo - Light</title>
  <g id="Page-1" stroke="none" stroke-width="1" fill="none" fill-rule="evenodd">
    <g id="EYCC-Logo" fill-rule="nonzero">
      <polygon id="Path" fill="#2e2e38" points="11.23 57.61 24.04 57.61 24.04 50.17 11.23 50.17 11.23 44.33 25.4 44.33 20.7 36.18 0.61 36.18 0.61 71.6 28.95 71.6 28.95 63.45 11.23 63.45"></polygon>
      <polygon id="Path" fill="#2e2e38" points="47.8 36.18 41.79 47.74 35.79 36.18 24.04 36.18 36.42 57.61 36.42 71.6 47.01 71.6 47.01 57.61 59.4 36.18"></polygon>
      <polygon id="Path" fill="#FFE600" points="70.02 0 0 25.56 70.02 13.19"></polygon>
      <path d="M89.56,39.75 L89.56,69.08" id="Path" stroke="#2e2e38" stroke-width="3" fill="#2e2e38"></path>
      <g id="Logo" transform="translate(112.000000, 43.000000)" fill="#2e2e38">
        <g id="EYCC-Logo-Light">
          <g id="Group">
            <path d="M12.24,6.35 C12.0169602,5.99981429 11.7696896,5.66566489 11.5,5.35 C11.2588519,5.08035065 10.9791611,4.84783664 10.67,4.66 C10.3589264,4.4743325 10.0218787,4.33614291 9.67,4.25 C9.25365135,4.15351667 8.82736771,4.10652478 8.4,4.11 C7.65503417,4.0935004 6.9172112,4.25822366 6.25,4.59 C5.60864876,4.91703795 5.0613778,5.40235371 4.66,6 C4.18985042,6.64839901 3.85021876,7.38200339 3.66,8.16 C3.22011595,10.0176478 3.22011595,11.9523522 3.66,13.81 C3.85214585,14.5842439 4.19166733,15.3142151 4.66,15.96 C5.06153091,16.537346 5.60129213,17.0049098 6.23,17.32 C8.46306602,18.5174991 11.2439218,17.6975032 12.47,15.48 L14.79,17 C14.4499577,17.5779455 14.0402241,18.1119425 13.57,18.59 C13.172583,18.9675898 12.7368963,19.3027334 12.27,19.59 C11.7402238,19.8997222 11.1720198,20.1384352 10.58,20.3 C9.86369235,20.4973738 9.12291133,20.5916551 8.38,20.58 C7.57087964,20.5889188 6.76611555,20.4604271 6,20.2 C5.31130513,19.9699199 4.66330863,19.6324217 4.08,19.2 C3.49154823,18.7682431 2.9693624,18.2527952 2.53,17.67 C2.08579738,17.0830361 1.71316707,16.4452005 1.42,15.77 C1.13072156,15.0523861 0.909743794,14.3090972 0.76,13.55 C0.592059221,12.6733305 0.508344787,11.782609 0.51,10.89 C0.500998191,9.57589932 0.689778125,8.26792407 1.07,7.01 C1.39881544,5.9196754 1.93157551,4.90166252 2.64,4.01 C4.02161656,2.25775257 6.14937073,1.26059948 8.38,1.32 C9.70987806,1.27110501 11.028675,1.57836398 12.2,2.21 C13.2521063,2.83150983 14.1160732,3.72657947 14.7,4.8 L12.24,6.35 Z" id="Path"></path>
            <path d="M24.76,20.25 L24.76,18.87 C24.4876171,19.1375364 24.1932496,19.3817276 23.88,19.6 C23.65,19.75 23.4,19.89 23.15,20.03 C22.8279721,20.1793448 22.4933262,20.2998173 22.15,20.39 C21.7364002,20.5033096 21.3087799,20.5571831 20.88,20.55 C20.3039995,20.5524357 19.7309132,20.4681583 19.18,20.3 C18.6085269,20.1383941 18.0771574,19.8590845 17.62,19.48 C17.1597662,19.0659561 16.788866,18.5623485 16.53,18 C16.2200588,17.3125218 16.0696387,16.5638403 16.09,15.81 C16.0786085,15.1203071 16.2221347,14.436849 16.51,13.81 C16.7795011,13.2518264 17.1811132,12.7678323 17.68,12.4 C18.2096389,12.0095633 18.8111339,11.7275063 19.45,11.57 C20.1686375,11.3855892 20.9080967,11.2948374 21.65,11.3 C22.2700722,11.2898771 22.8896582,11.3401138 23.5,11.45 C23.933964,11.5296376 24.3569287,11.6605553 24.76,11.84 L24.76,10.84 C24.8033752,10.1837945 24.5587673,9.54124218 24.09,9.08 C23.5256492,8.62880711 22.8100931,8.41056252 22.09,8.47 C21.4171541,8.45559633 20.7451797,8.52615365 20.09,8.68 C19.4997871,8.82375286 18.9314258,9.04571646 18.4,9.34 L17.34,7.27 C18.0071088,6.85371816 18.7314115,6.53704632 19.49,6.33 C20.3740001,6.09663161 21.2858285,5.98559716 22.2,6 C22.9236676,5.99164381 23.6446559,6.08934783 24.34,6.29 C24.9476028,6.46193493 25.5128733,6.75819118 26,7.16 C26.4621886,7.56374425 26.8278453,8.066095 27.07,8.63 C27.3304512,9.28861507 27.4595421,9.99182094 27.45,10.7 L27.45,20.28 L24.76,20.25 Z M24.76,14.25 C24.532767,14.1420848 24.2989723,14.0485669 24.06,13.97 C23.85,13.91 23.64,13.85 23.41,13.8 C23.1423958,13.7474503 22.8719268,13.7107199 22.6,13.69 C22.28,13.69 21.94,13.69 21.6,13.69 C20.8585973,13.6518503 20.1239635,13.8477527 19.5,14.25 C19.0003013,14.591663 18.7098616,15.1649984 18.73,15.77 C18.7167727,16.1359052 18.7922524,16.4995802 18.95,16.83 C19.0800146,17.1063156 19.2715771,17.3491895 19.51,17.54 C19.7463726,17.7290884 20.018469,17.8685378 20.31,17.95 C20.671066,18.051177 21.0451191,18.0983549 21.42,18.09 C21.7762328,18.0921678 22.1305809,18.0381719 22.47,17.93 C22.8007909,17.8287129 23.1193877,17.6912132 23.42,17.52 C23.7012589,17.3561671 23.9658477,17.1652613 24.21,16.95 C24.4238089,16.7561587 24.6180737,16.5417975 24.79,16.31 L24.76,14.25 Z" id="Combined-Shape"></path>
            <path d="M39,9.17 C38.7054122,9.00847837 38.3934063,8.88099212 38.07,8.79 C37.6897349,8.70152637 37.300416,8.6578958 36.91,8.66 C36.1373758,8.63220251 35.3966311,8.96924134 34.91,9.57 C34.3810294,10.3666148 34.1313173,11.3162245 34.2,12.27 L34.2,20.27 L31.46,20.27 L31.46,6.27 L34.2,6.27 L34.2,7.6 C34.3598207,7.35862195 34.5515592,7.1399728 34.77,6.95 C35.0038323,6.75736139 35.2548901,6.58664206 35.52,6.44 C36.0721422,6.15985146 36.6809228,6.00936637 37.3,6 C37.771822,5.98829661 38.2429848,6.04214379 38.7,6.16 C39.0542635,6.24869749 39.3919233,6.3938912 39.7,6.59 L39,9.17 Z" id="Path"></path>
            <path d="M53,13 L53,13.71 C53.0116587,13.8915069 52.9947871,14.0737195 52.95,14.25 L43.72,14.25 C43.7751737,14.849372 43.9236297,15.4364479 44.16,15.99 C44.3520406,16.4296367 44.6193909,16.8323542 44.95,17.18 C45.2502838,17.4827151 45.6116469,17.717942 46.01,17.87 C46.4043585,18.0132954 46.8204205,18.087713 47.24,18.09 C47.5251471,18.088634 47.8096054,18.0618614 48.09,18.01 C48.3533551,17.957826 48.611174,17.8808151 48.86,17.78 C49.0875377,17.6896356 49.3081311,17.5826812 49.52,17.46 C49.7763895,17.3118475 50.023514,17.148211 50.26,16.97 L51.88,18.73 C51.5743414,19.0295306 51.2393207,19.2975471 50.88,19.53 C50.5587636,19.7315534 50.224721,19.9119364 49.88,20.07 C49.4796375,20.2429008 49.0599694,20.3671226 48.63,20.44 C48.1221153,20.5333078 47.6063393,20.5768474 47.09,20.57 C46.5136562,20.5774219 45.9398064,20.4930322 45.39,20.32 C44.8918891,20.1658779 44.4174177,19.9437849 43.98,19.66 C43.5830888,19.3878541 43.2175285,19.0726003 42.89,18.72 C42.5219813,18.3128558 42.2092835,17.8589396 41.96,17.37 C41.6498302,16.7873175 41.4210321,16.164852 41.28,15.52 C41.1233608,14.787101 41.046248,14.0394416 41.05,13.29 C41.0295509,12.2259064 41.181517,11.1655206 41.5,10.15 C41.7573104,9.31291496 42.1826451,8.53710451 42.75,7.87 C43.2790669,7.2588957 43.943312,6.7795436 44.69,6.47 C45.4714534,6.14148086 46.3123847,5.97806101 47.16,5.99 C48.0599578,5.96748503 48.9520022,6.1630486 49.76,6.56 C50.4794584,6.918145 51.1059137,7.43847943 51.59,8.08 C52.0906846,8.74796042 52.4605175,9.50459105 52.68,10.31 C52.9111916,11.1874322 53.0188955,12.0928177 53,13 L53,13 Z M50.24,12 C50.2119541,11.5414983 50.1279988,11.0881401 49.99,10.65 C49.8628247,10.2419998 49.6592064,9.86191215 49.39,9.53 C49.1218436,9.20075187 48.7790254,8.94021 48.39,8.77 C47.9341295,8.56799374 47.4383065,8.4722486 46.94,8.49 C46.5044074,8.47866433 46.0714169,8.56048929 45.67,8.73 C45.3166535,8.89050136 45.000095,9.12196353 44.74,9.41 C44.4596207,9.73134129 44.2394364,10.1005735 44.09,10.5 C43.9121393,10.9831523 43.7978481,11.4873781 43.75,12 L50.24,12 Z" id="Shape"></path>
            <path d="M67.73,13 L67.73,14.25 L58.5,14.25 C58.561216,14.8483206 58.7094454,15.4345007 58.94,15.99 C59.1320406,16.4296367 59.3993909,16.8323542 59.73,17.18 C60.0326977,17.4797361 60.3933939,17.7145289 60.79,17.87 C61.1843585,18.0132954 61.6004205,18.087713 62.02,18.09 C62.3051471,18.088634 62.5896054,18.0618614 62.87,18.01 C63.1369485,17.959243 63.3982209,17.8822012 63.65,17.78 C63.89,17.67 64.11,17.57 64.3,17.46 C64.49,17.35 64.77,17.16 65,17 L66.63,18.76 C66.321811,19.0566616 65.9870772,19.3244486 65.63,19.56 C65.3110021,19.7653682 64.9766831,19.9459005 64.63,20.1 C64.2261867,20.272941 63.8032051,20.3971499 63.37,20.47 C62.8621153,20.5633078 62.3463393,20.6068474 61.83,20.6 C60.7296226,20.6084011 59.651241,20.2918439 58.73,19.69 C58.3299422,19.4179919 57.9610525,19.102759 57.63,18.75 C57.2681954,18.3379779 56.9560554,17.8848715 56.7,17.4 C56.3788177,16.8025833 56.1431804,16.1629964 56,15.5 C55.8302331,14.7690872 55.7496459,14.0202981 55.76,13.27 C55.7395509,12.2059064 55.891517,11.1455206 56.21,10.13 C56.4713563,9.29463084 56.8962676,8.51959279 57.46,7.85 C57.9890669,7.2388957 58.653312,6.7595436 59.4,6.45 C60.1852163,6.12232965 61.0292292,5.95897231 61.88,5.97 C62.7768638,5.9463055 63.6659476,6.14197257 64.47,6.54 C65.1894584,6.898145 65.8159137,7.41847943 66.3,8.06 C66.8006846,8.72796042 67.1705175,9.48459105 67.39,10.29 C67.6325892,11.1723776 67.7470933,12.0850423 67.73,13 L67.73,13 Z M65,12 C64.9719541,11.5414983 64.8879988,11.0881401 64.75,10.65 C64.6322597,10.2381099 64.4276718,9.8562125 64.15,9.53 C63.8818436,9.20075187 63.5390254,8.94021 63.15,8.77 C62.6960934,8.57299414 62.2046561,8.47743689 61.71,8.49 C61.2712255,8.47937138 60.8351206,8.56114104 60.43,8.73 C60.0766535,8.89050136 59.760095,9.12196353 59.5,9.41 C59.2226449,9.73174015 59.0058164,10.1010262 58.86,10.5 C58.6793725,10.9828861 58.5617367,11.4870393 58.51,12 L65,12 Z" id="Shape"></path>
            <path d="M77.89,9.17 C77.5954122,9.00847837 77.2834063,8.88099212 76.96,8.79 C76.5797349,8.70152637 76.190416,8.6578958 75.8,8.66 C75.027062,8.63061351 74.2856394,8.9679608 73.8,9.57 C73.261075,10.3624536 73.0072162,11.3144241 73.08,12.27 L73.08,20.27 L70.34,20.27 L70.34,6.27 L73.08,6.27 L73.08,7.6 C73.2398207,7.35862195 73.4315592,7.1399728 73.65,6.95 C73.8838323,6.75736139 74.1348901,6.58664206 74.4,6.44 C74.6765929,6.28736015 74.9726302,6.17298209 75.28,6.1 C75.604988,6.00705384 75.9420496,5.96323583 76.28,5.97 C76.751822,5.95829661 77.2229848,6.01214379 77.68,6.13 C78.0342635,6.21869749 78.3719233,6.3638912 78.68,6.56 L77.89,9.17 Z" id="Path"></path>
            <path d="M97.4,6.35 C97.1794314,5.99812252 96.9320299,5.66379609 96.66,5.35 C96.4188519,5.08035065 96.1391611,4.84783664 95.83,4.66 C95.5189264,4.4743325 95.1818787,4.33614291 94.83,4.25 C94.4136513,4.15351667 93.9873677,4.10652478 93.56,4.11 C92.8117092,4.09227365 92.0703558,4.25701886 91.4,4.59 C90.766451,4.92053694 90.2264733,5.40548506 89.83,6 C89.369475,6.65399965 89.0307162,7.38571851 88.83,8.16 C88.3998481,10.0187717 88.3998481,11.9512283 88.83,13.81 C89.030806,14.5811593 89.369606,15.3095793 89.83,15.96 C90.2330166,16.5322327 90.7681613,16.9987691 91.39,17.32 C92.8501739,17.9832748 94.5334287,17.9427588 95.96,17.21 C96.6461057,16.7740784 97.2185578,16.1810591 97.63,15.48 L100,17 C99.6531125,17.5759505 99.2403322,18.1095445 98.77,18.59 C98.3773492,18.9731228 97.9410217,19.3087594 97.47,19.59 C96.9438838,19.8999622 96.3789497,20.1387141 95.79,20.3 C95.0736923,20.4973738 94.3329113,20.5916551 93.59,20.58 C92.7795869,20.5942996 91.9722829,20.4760752 91.2,20.23 C90.5155133,19.9972991 89.8712066,19.6599658 89.29,19.23 C88.6992406,18.8009567 88.176679,18.2851379 87.74,17.7 C87.290075,17.1168727 86.9170148,16.4783012 86.63,15.8 C86.3316402,15.0855902 86.110387,14.3413747 85.97,13.58 C85.79719,12.7040309 85.7134303,11.812828 85.72,10.92 C85.7027737,9.60608235 85.8882875,8.29736704 86.27,7.04 C86.6018402,5.94892819 87.1380202,4.93086491 87.85,4.04 C89.2223572,2.27497903 91.3552747,1.27169032 93.59,1.34 C94.9166583,1.29143738 96.2321477,1.59873017 97.4,2.23 C98.4527041,2.85400104 99.3193238,3.74824217 99.91,4.82 L97.4,6.35 Z" id="Path"></path>
            <path d="M113.25,13 L113.25,13.71 C113.261659,13.8915069 113.244787,14.0737195 113.2,14.25 L104,14.25 C104.061216,14.8483206 104.209445,15.4345007 104.44,15.99 C104.629584,16.4333784 104.900981,16.837082 105.24,17.18 C105.520676,17.4782595 105.86154,17.713456 106.24,17.87 C106.634359,18.0132954 107.05042,18.087713 107.47,18.09 C107.75846,18.0886477 108.04624,18.0618775 108.33,18.01 C108.593355,17.957826 108.851174,17.8808151 109.1,17.78 C109.323358,17.687501 109.540481,17.5806099 109.75,17.46 C110.00639,17.3118475 110.253514,17.148211 110.49,16.97 L112.12,18.73 C111.811811,19.0266616 111.477077,19.2944486 111.12,19.53 C110.803258,19.7391628 110.468618,19.9198685 110.12,20.07 C109.719637,20.2429008 109.299969,20.3671226 108.87,20.44 C108.358783,20.5335775 107.839663,20.5771166 107.32,20.57 C106.743656,20.5774219 106.169806,20.4930322 105.62,20.32 C105.125034,20.1658619 104.653868,19.9437409 104.22,19.66 C103.819942,19.3879919 103.451053,19.072759 103.12,18.72 C102.758195,18.3079779 102.446055,17.8548715 102.19,17.37 C101.882946,16.7869496 101.657502,16.1644557 101.52,15.52 C101.358458,14.7878837 101.281288,14.039676 101.29,13.29 C101.271272,12.2267465 101.41975,11.1671546 101.73,10.15 C101.998922,9.30137998 102.441658,8.51807809 103.03,7.85 C103.553418,7.23711199 104.214898,6.7572819 104.96,6.45 C105.745216,6.12232965 106.589229,5.95897231 107.44,5.97 C108.339958,5.94748503 109.232002,6.1430486 110.04,6.54 C110.757879,6.90056465 111.383825,7.42047636 111.87,8.06 C112.361099,8.73377955 112.730037,9.48858013 112.96,10.29 C113.181017,11.1756659 113.278606,12.0876217 113.25,13 L113.25,13 Z M110.48,12 C110.456818,11.5409145 110.372749,11.0869433 110.23,10.65 C110.11226,10.2381099 109.907672,9.8562125 109.63,9.53 C109.361844,9.20075187 109.019025,8.94021 108.63,8.77 C108.176093,8.57299414 107.684656,8.47743689 107.19,8.49 C106.754407,8.47866433 106.321417,8.56048929 105.92,8.73 C105.562179,8.88777238 105.24182,9.11952142 104.98,9.41 C104.702645,9.73174015 104.485816,10.1010262 104.34,10.5 C104.162139,10.9831523 104.047848,11.4873781 104,12 L110.48,12 Z" id="Shape"></path>
            <path d="M124.32,20.25 L124.32,12.35 C124.390088,11.3477462 124.15661,10.3476238 123.65,9.48 C123.139667,8.78775142 122.307119,8.40932052 121.45,8.48 C121.032642,8.48091308 120.619041,8.55888706 120.23,8.71 C119.861686,8.86813934 119.541094,9.11978676 119.3,9.44 C119.043524,9.79123416 118.856816,10.188413 118.75,10.61 C118.638688,11.0785711 118.581646,11.5583916 118.58,12.04 L118.58,20.22 L115.85,20.22 L115.85,6.22 L118.58,6.22 L118.58,7.6 C118.959017,7.08058802 119.465224,6.66735784 120.05,6.4 C120.371335,6.25894495 120.706472,6.15170109 121.05,6.08 C122.14281,5.86258414 123.275223,5.96679389 124.31,6.38 C124.90916,6.64646102 125.436843,7.05078921 125.85,7.56 C126.289857,8.13598774 126.606427,8.79636068 126.78,9.5 C127.002535,10.3958785 127.106755,11.3170485 127.09,12.24 L127.09,20.24 L124.32,20.25 Z" id="Path"></path>
            <path d="M136.85,19.9 C136.473936,20.1045057 136.074314,20.2623397 135.66,20.37 C135.169965,20.4950283 134.665703,20.5555397 134.16,20.55 C133.734671,20.5594197 133.311157,20.4916575 132.91,20.35 C132.532398,20.2153596 132.190417,19.9964921 131.91,19.71 C131.595853,19.3895204 131.362729,18.9986939 131.23,18.57 C131.068977,18.0111367 130.991472,17.4315358 131,16.85 L131,8.77 L129,8.77 L129,6.27 L131,6.27 L131,2.27 L133.69,0.82 L133.69,6.26 L137.14,6.26 L137.14,8.76 L133.69,8.76 L133.69,16.35 C133.681444,16.6256313 133.708331,16.90122 133.77,17.17 C133.815703,17.357952 133.904742,17.5326057 134.03,17.68 C134.153289,17.8084559 134.308638,17.9016656 134.48,17.95 C134.690799,18.0122005 134.910409,18.0392294 135.13,18.03 C135.496568,18.0288043 135.860791,17.971473 136.21,17.86 C136.535212,17.7697551 136.847695,17.6387139 137.14,17.47 L136.85,19.9 Z" id="Path"></path>
            <path d="M151.39,13 L151.39,13.71 C151.401659,13.8915069 151.384787,14.0737195 151.34,14.25 L142.11,14.25 C142.165174,14.849372 142.31363,15.4364479 142.55,15.99 C142.742041,16.4296367 143.009391,16.8323542 143.34,17.18 C143.640284,17.4827151 144.001647,17.717942 144.4,17.87 C144.794359,18.0132954 145.21042,18.087713 145.63,18.09 C145.915147,18.088634 146.199605,18.0618614 146.48,18.01 C146.746949,17.959243 147.008221,17.8822012 147.26,17.78 C147.5,17.67 147.72,17.57 147.91,17.46 C148.16639,17.3118475 148.413514,17.148211 148.65,16.97 L150.27,18.73 C149.964341,19.0295306 149.629321,19.2975471 149.27,19.53 C148.948764,19.7315534 148.614721,19.9119364 148.27,20.07 C147.869637,20.2429008 147.449969,20.3671226 147.02,20.44 C146.512115,20.5333078 145.996339,20.5768474 145.48,20.57 C144.379623,20.5784011 143.301241,20.2618439 142.38,19.66 C141.979942,19.3879919 141.611053,19.072759 141.28,18.72 C140.911981,18.3128558 140.599283,17.8589396 140.35,17.37 C140.042946,16.7869496 139.817502,16.1644557 139.68,15.52 C139.510233,14.7890872 139.429646,14.0402981 139.44,13.29 C139.419551,12.2259064 139.571517,11.1655206 139.89,10.15 C140.151356,9.31463084 140.576268,8.53959279 141.14,7.87 C141.669067,7.2588957 142.333312,6.7795436 143.08,6.47 C143.865216,6.14232965 144.709229,5.97897231 145.56,5.99 C146.456864,5.9663055 147.345948,6.16197257 148.15,6.56 C148.876708,6.91555112 149.510232,7.43606823 150,8.08 C150.468229,8.74786309 150.807395,9.49742032 151,10.29 C151.259487,11.1699128 151.390837,12.0826237 151.39,13 L151.39,13 Z M148.62,12 C148.591954,11.5414983 148.507999,11.0881401 148.37,10.65 C148.242825,10.2419998 148.039206,9.86191215 147.77,9.53 C147.501844,9.20075187 147.159025,8.94021 146.77,8.77 C146.314129,8.56799374 145.818306,8.4722486 145.32,8.49 C144.884407,8.47866433 144.451417,8.56048929 144.05,8.73 C143.696654,8.89050136 143.380095,9.12196353 143.12,9.41 C142.839621,9.73134129 142.619436,10.1005735 142.47,10.5 C142.292139,10.9831523 142.177848,11.4873781 142.13,12 L148.62,12 Z" id="Shape"></path>
            <path d="M161.55,9.17 C161.255412,9.00847837 160.943406,8.88099212 160.62,8.79 C160.239735,8.70152637 159.850416,8.6578958 159.46,8.66 C158.687376,8.63220251 157.946631,8.96924134 157.46,9.57 C156.931029,10.3666148 156.681317,11.3162245 156.75,12.27 L156.75,20.27 L154,20.27 L154,6.27 L156.74,6.27 L156.74,7.6 C156.899821,7.35862195 157.091559,7.1399728 157.31,6.95 C157.543832,6.75736139 157.79489,6.58664206 158.06,6.44 C158.335084,6.29168637 158.627245,6.17750853 158.93,6.1 C159.255984,6.01196124 159.592342,5.96823475 159.93,5.97 C160.401822,5.95829661 160.872985,6.01214379 161.33,6.13 C161.682758,6.22310899 162.019757,6.36801867 162.33,6.56 L161.55,9.17 Z" id="Path"></path>
          </g>
        </g>
      </g>
    </g>
  </g>
</svg>
