<svg width="242" height="209" viewBox="0 0 242 209" fill="none" xmlns="http://www.w3.org/2000/svg">
<path d="M144.563 72.247C144.563 66.462 148.297 62.847 153.481 62.847C158.542 62.847 162.282 66.462 162.282 72.247V95.509C162.282 95.989 162.52 96.231 163.003 96.231H189.757C190.239 96.231 190.484 95.99 190.484 95.509V72.247C190.484 66.462 194.218 62.847 199.281 62.847C204.463 62.847 208.199 66.462 208.199 72.247V136.847C208.199 142.634 204.463 146.247 199.281 146.247C194.219 146.247 190.484 142.634 190.484 136.847V112.743C190.484 112.26 190.24 112.018 189.757 112.018H163.003C162.521 112.018 162.282 112.259 162.282 112.743V136.847C162.282 142.634 158.425 146.247 153.362 146.247C148.178 146.247 144.563 142.634 144.563 136.847V72.247Z" fill="#71BF4D"/>
<path d="M34.526 105.048C34.526 92.997 35.008 88.416 36.815 82.631C41.034 69.374 52.362 62.743 66.946 62.743C80.204 62.743 89.364 68.17 93.704 75.519C94.667 77.207 95.268 78.896 95.268 80.822C95.268 85.522 91.653 88.777 87.194 88.777C84.18 88.777 81.77 87.814 79.36 84.439C76.227 80.1 72.251 78.414 66.946 78.414C59.956 78.414 55.616 81.907 53.809 87.573C52.844 90.586 52.483 94.442 52.483 105.048C52.483 115.654 52.844 119.631 53.809 122.645C55.616 128.189 60.075 131.684 67.186 131.684C73.454 131.684 78.637 128.43 80.325 123.247C81.046 121.077 81.29 118.307 81.29 115.172C81.29 114.69 81.046 114.45 80.563 114.45H75.02C70.442 114.45 67.549 111.677 67.549 107.459C67.549 103.241 70.442 100.467 75.02 100.467H91.895C96.354 100.467 98.883 103 98.883 107.459V108.303C98.883 115.533 98.281 122.283 96.836 126.865C92.615 140.001 81.529 147.353 66.945 147.353C52.361 147.353 41.033 140.724 36.814 127.465C35.009 121.682 34.526 117.101 34.526 105.048Z" fill="#71BF4D"/>
<path d="M121 10L121 199" stroke="#71BF4D" stroke-width="19" stroke-linecap="round"/>
<rect x="10" y="38" width="222" height="132" stroke="#71BF4D" stroke-width="19" stroke-linejoin="round"/>
</svg>
