<?xml version="1.0" encoding="utf-8"?>
<!DOCTYPE svg PUBLIC "-//W3C//DTD SVG 1.1//EN" "http://www.w3.org/Graphics/SVG/1.1/DTD/svg11.dtd">
<svg version="1.1" id="Layer_1" xmlns="http://www.w3.org/2000/svg" xmlns:xlink="http://www.w3.org/1999/xlink" x="0px" y="0px"
	 width="351.81px" height="331px" viewBox="0 0 351.81 331" enable-background="new 0 0 351.81 331" xml:space="preserve">
<g>
	<path fill="#71BF4D" d="M89.526,166.048c0-12.051,0.482-16.632,2.289-22.417c4.219-13.257,15.547-19.888,30.131-19.888
		c13.258,0,22.418,5.427,26.758,12.776c0.963,1.688,1.564,3.377,1.564,5.303c0,4.7-3.615,7.955-8.074,7.955
		c-3.014,0-5.424-0.963-7.834-4.338c-3.133-4.339-7.109-6.025-12.414-6.025c-6.99,0-11.33,3.493-13.137,9.159
		c-0.965,3.013-1.326,6.869-1.326,17.475c0,10.606,0.361,14.583,1.326,17.597c1.807,5.544,6.266,9.039,13.377,9.039
		c6.268,0,11.451-3.254,13.139-8.437c0.721-2.17,0.965-4.94,0.965-8.075c0-0.482-0.244-0.722-0.727-0.722h-5.543
		c-4.578,0-7.471-2.773-7.471-6.991s2.893-6.992,7.471-6.992h16.875c4.459,0,6.988,2.533,6.988,6.992v0.844
		c0,7.23-0.602,13.98-2.047,18.562c-4.221,13.136-15.307,20.488-29.891,20.488s-25.912-6.629-30.131-19.888
		C90.009,182.682,89.526,178.101,89.526,166.048z"/>
	<path fill="#71BF4D" d="M199.563,133.247c0-5.785,3.734-9.4,8.918-9.4c5.061,0,8.801,3.615,8.801,9.4v23.262
		c0,0.48,0.238,0.722,0.721,0.722h26.754c0.482,0,0.727-0.241,0.727-0.722v-23.262c0-5.785,3.734-9.4,8.797-9.4
		c5.182,0,8.918,3.615,8.918,9.4v64.6c0,5.787-3.736,9.4-8.918,9.4c-5.062,0-8.797-3.613-8.797-9.4v-24.104
		c0-0.483-0.244-0.725-0.727-0.725h-26.754c-0.482,0-0.721,0.241-0.721,0.725v24.104c0,5.787-3.857,9.4-8.92,9.4
		c-5.184,0-8.799-3.613-8.799-9.4V133.247z"/>
	<path fill="#71BF4D" d="M286.39,90.355H184.946V70.993c0-4.992-4.047-9.039-9.039-9.039s-9.039,4.047-9.039,9.039v19.362H65.421
		c-4.992,0-9.039,4.048-9.039,9.04v132.208c0,4.992,4.047,9.04,9.039,9.04h101.447v19.363c0,4.993,4.047,9.04,9.039,9.04
		s9.039-4.047,9.039-9.04v-19.363H286.39c4.992,0,9.039-4.048,9.039-9.04V99.395C295.429,94.403,291.382,90.355,286.39,90.355z
		 M74.46,222.563V108.434h92.408v114.129H74.46z M277.349,222.563h-92.402V108.434h92.402V222.563z"/>
</g>
</svg>
